Plot : When human forces discover the existence of the Vampire and Lycan clans, a war to eradicate both species commences. The vampire warrioress Selene leads the battle against humankind.


Directors: Måns Mårlind, Björn Stein
Writers: Len Wiseman (screenplay), John Hlavin (screenplay)Stars:Kate Beckinsale, Michael Ealy and India Eisley 

 
http://www.imdb.com/title/tt1496025/


Format : Matroska
File size : 697 MiB
Duration : 1h 16mn
Overall bit rate : 1 279 Kbps
Encoded date : UTC 2012-02-03 10:48:26
Writing library : WonderShare Matroska Muxer

Video
ID : 1
Format : AVC
Format/Info : Advanced Video Codec
Format profile : Baseline@L3.0
Format settings, CABAC : No
Format settings, ReFrames : 1 frame
Muxing mode : Container profile=Unknown@3.0
Codec ID : V_MPEG4/ISO/AVC
Duration : 1h 16mn
Bit rate : 1 126 Kbps
Width : 720 pixels
Height : 304 pixels
Display aspect ratio : 2.35:1
Frame rate : 23.976 fps
Original frame rate : 23.000 fps
Resolution : 24 bits
Colorimetry : 4:2:0
Scan type : Progressive
Bits/(Pixel*Frame) : 0.215
Stream size : 613 MiB (88%)

Audio
ID : 2
Format : AC-3
Format/Info : Audio Coding 3
Codec ID : A_AC3
Duration : 1h 16mn
Bit rate mode : Constant
Bit rate : 128 Kbps
Channel(s) : 2 channels
Channel positions : L R
Sampling rate : 48.0 KHz
Resolution : 16 bits
Stream size : 69.7 MiB (10%)
 
http://www.prikachi.com/images/835/4371835D.jpg 
http://www.prikachi.com/images/839/4371839A.jpg 
http://www.prikachi.com/images/840/4371840l.jpg 
http://www.prikachi.com/images/838/4371838z.jpg 
http://www.prikachi.com/images/832/4371832f.jpg